<?xml version="1.0" standalone="no"?><!DOCTYPE svg PUBLIC "-//W3C//DTD SVG 1.1//EN" "http://www.w3.org/Graphics/SVG/1.1/DTD/svg11.dtd"><svg t="1573992993385" class="icon" viewBox="0 0 1024 1024" version="1.1" xmlns="http://www.w3.org/2000/svg" p-id="710" xmlns:xlink="http://www.w3.org/1999/xlink" width="200" height="200"><defs><style type="text/css"></style></defs><path d="M745.86548906 121.65098516L278.13451094 121.65098516c-85.97995938 0-156.48352579 70.50356642-156.48352578 156.48352578l0 467.73097813c0 85.97995938 70.50356642 156.48352579 156.48352577 156.48352577l467.73097813 0c85.97995938 0 156.48352579-70.50356642 156.48352578-156.48352577L902.34901484 278.13451094C902.34901484 192.15455157 831.84544843 121.65098516 745.86548906 121.65098516zM840.44344453 745.86548906c0 51.58797578-41.27038046 92.85835625-92.85835624 92.85835625L278.13451094 838.7238453c-51.58797578 0-92.85835625-41.27038046-92.85835625-92.85835624L185.2761547 278.13451094c0-51.58797578 41.27038046-92.85835625 92.85835624-92.85835625l467.73097813 0c51.58797578 0 92.85835625 41.27038046 92.85835624 92.85835624L838.7238453 745.86548906zM348.63807734 367.55366875c-17.19599218 0-30.95278517 13.75679375-30.95278515 30.95278516l0 330.16304374c0 17.19599218 13.75679375 30.95278517 30.95278515 30.95278516s30.95278517-13.75679375 30.95278516-30.95278516L379.5908625 398.50645391C379.5908625 381.31046173 365.83406953 367.55366875 348.63807734 367.55366875zM512 262.65811797c-17.19599218 0-30.95278517 13.75679375-30.95278517 30.95278516l0 435.05859374c0 17.19599218 13.75679375 30.95278517 30.95278517 30.95278517s30.95278517-13.75679375 30.95278517-30.95278517L542.95278517 295.33050235C542.95278517 278.13451094 529.19599218 262.65811797 512 262.65811797zM675.36192266 463.85122267c-17.19599218 0-30.95278517 13.75679375-30.95278516 30.95278514l0 233.86548908c0 17.19599218 13.75679375 30.95278517 30.95278516 30.95278515 17.19599218 0 30.95278517-13.75679375 30.95278515-30.95278517L706.31470781 494.80400782C706.31470781 477.60801641 692.55791406 463.85122267 675.36192266 463.85122267z" p-id="711"></path></svg>